<svg width="100" height="100" viewBox="0 0 100 100" fill="none" xmlns="http://www.w3.org/2000/svg">
<path d="M50 4C24.6191 4 4 24.6191 4 50C4 58.1582 6.23738 65.7718 9.96875 72.418L4.07422 93.4609C3.98005 93.7977 3.97579 94.1532 4.06188 94.4921C4.14796 94.831 4.32138 95.1414 4.56484 95.3924C4.8083 95.6433 5.11329 95.8261 5.44941 95.9224C5.78553 96.0188 6.14103 96.0253 6.48047 95.9414L28.4219 90.5039C34.8693 93.9459 42.1852 96 50 96C75.3809 96 96 75.3809 96 50C96 24.6191 75.3809 4 50 4ZM50 8C73.2191 8 92 26.7809 92 50C92 73.2191 73.2191 92 50 92C42.556 92 35.5842 90.0593 29.5234 86.668C29.0802 86.4203 28.5593 86.3505 28.0664 86.4727L8.85156 91.2344L14.0039 72.8516C14.0776 72.5918 14.098 72.3198 14.0638 72.0519C14.0295 71.784 13.9414 71.5259 13.8047 71.293C10.1214 65.0472 8 57.7802 8 50C8 26.7809 26.7809 8 50 8ZM33.2852 26C32.0031 26 30.1721 26.477 28.668 28.0977C27.7645 29.0711 24 32.739 24 39.1875C24 45.9105 28.6628 51.7117 29.2266 52.457H29.2305V52.4609C29.177 52.3907 29.9461 53.5044 30.9727 54.8398C31.9993 56.1753 33.4348 57.9293 35.2383 59.8281C38.8452 63.6258 43.9166 68.0148 50.2109 70.6992C53.1096 71.9336 55.3964 72.6788 57.1289 73.2227C60.3397 74.2309 63.2641 74.0776 65.4609 73.7539C67.1053 73.5118 68.9138 72.7222 70.7031 71.5898C72.4925 70.4575 74.2462 69.0494 75.0195 66.9102C75.5735 65.3765 75.8552 63.9592 75.957 62.793C76.008 62.2099 76.0144 61.6952 75.9766 61.2188C75.9386 60.7423 75.9792 60.3773 75.5352 59.6484C74.604 58.1196 73.5495 58.0797 72.4492 57.5352C71.8379 57.2326 70.0973 56.3827 68.3516 55.5508C66.6078 54.7198 65.0978 53.9839 64.168 53.6523C63.5805 53.441 62.8631 53.1367 61.8281 53.2539C60.7931 53.3711 59.7709 54.1179 59.1758 55C58.6117 55.8361 56.3408 58.5167 55.6484 59.3047C55.6392 59.2991 55.6993 59.3268 55.4258 59.1914C54.5695 58.7676 53.5223 58.4073 51.9727 57.5898C50.423 56.7724 48.4845 55.5653 46.3633 53.6953V53.6914C43.2061 50.9119 40.9945 47.4222 40.2969 46.25C40.3439 46.1941 40.2913 46.2618 40.3906 46.1641L40.3945 46.1602C41.1076 45.4578 41.7395 44.619 42.2734 44.0039C43.0305 43.1317 43.3646 42.3629 43.7266 41.6445C44.4479 40.2129 44.0463 38.6375 43.6289 37.8086V37.8047C43.6577 37.862 43.4031 37.3003 43.1289 36.6523C42.8539 36.0025 42.5033 35.1601 42.1289 34.2617C41.3801 32.465 40.5441 30.4498 40.0469 29.2695V29.2656C39.4612 27.8754 38.6688 26.8738 37.6328 26.3906C36.5968 25.9074 35.6816 26.0448 35.6445 26.043H35.6406C34.9013 26.0089 34.0901 26 33.2852 26ZM33.2852 30C34.0562 30 34.8164 30.0094 35.4531 30.0391C36.1081 30.0717 36.0674 30.0744 35.9414 30.0156C35.8134 29.9559 35.9871 29.9366 36.3594 30.8203C36.8462 31.976 37.6863 33.9985 38.4375 35.8008C38.8131 36.7019 39.1646 37.5476 39.4453 38.2109C39.726 38.8742 39.8782 39.2446 40.0547 39.5977V39.6016L40.0586 39.6055C40.2317 39.947 40.2164 39.7283 40.1562 39.8477C39.7342 40.6853 39.6769 40.891 39.25 41.3828C38.6 42.1317 37.9369 42.9668 37.5859 43.3125C37.2789 43.6141 36.7248 44.0841 36.3789 45.0039C36.0324 45.9252 36.1941 47.1891 36.75 48.1328C37.4901 49.3892 39.9288 53.3586 43.7188 56.6953C46.1055 58.7994 48.3291 60.1919 50.1055 61.1289C51.8818 62.0659 53.3286 62.6132 53.6523 62.7734C54.4211 63.1539 55.2613 63.4493 56.2383 63.332C57.2153 63.2147 58.0576 62.622 58.5938 62.0156L58.5977 62.0117C59.3113 61.2027 61.4317 58.7815 62.4492 57.2891C62.4923 57.3043 62.4782 57.2925 62.8164 57.4141V57.418H62.8203C62.9747 57.4729 64.9086 58.3385 66.6328 59.1602C68.3571 59.9818 70.1071 60.8357 70.6758 61.1172C71.4964 61.5233 71.8842 61.7878 71.9844 61.7891C71.9911 61.965 71.998 62.1557 71.9727 62.4453C71.9025 63.2486 71.6878 64.3604 71.2578 65.5508C71.0472 66.1335 69.95 67.3353 68.5664 68.2109C67.1828 69.0866 65.4987 69.705 64.875 69.7969C62.9998 70.0732 60.7733 70.1741 58.3281 69.4062C56.6327 68.8741 54.5186 68.1852 51.7812 67.0195C46.2296 64.6519 41.5112 60.623 38.1406 57.0742C36.4553 55.2998 35.1051 53.648 34.1445 52.3984C33.1857 51.1512 32.7671 50.5021 32.418 50.043L32.4141 50.0391C31.7944 49.2196 28 43.9417 28 39.1875C28 34.156 30.337 32.1829 31.6016 30.8203C32.2654 30.105 32.9912 30 33.2852 30Z" fill="white"/>
</svg>
